# xmcd
#
# Track frame offsets:
#	150
#	10356
#	21498
#	33091
#	42705
#	52159
#	64432
#	80578
#	91730
#
# Disc length: 1396 seconds
#
# Revision: 1
# Processed by: cddbd v1.5.2PL0 Copyright (c) Steve Scherf et al.
# Submitted via: audiograbber 1.83.01
#
DISCID=79057209
DTITLE=Slim Whitman - Slim Whitman
DYEAR=1900
DGENRE=Country
TTITLE0=Twelfth of Never
TTITLE1=Careless Love
TTITLE2=Cattle Call
TTITLE3=I Remember You
TTITLE4=Love Letters in the Sand
TTITLE5=Mansion on the Hill
TTITLE6=Sweeter Tha the Flowers
TTITLE7=Wayward Wind
TTITLE8=Please Releaase Me
EXTD=
EXTT0=
EXTT1=
EXTT2=
EXTT3=
EXTT4=
EXTT5=
EXTT6=
EXTT7=
EXTT8=
PLAYORDER=
